<svg width="484" height="485" viewBox="0 0 484 485" fill="none" xmlns="http://www.w3.org/2000/svg">
<path d="M151.865 286.412C128.043 236.618 149.226 176.701 199.035 152.872L210.966 177.812C198.026 184.002 187.211 193.888 179.888 206.218C172.565 218.549 169.064 232.77 169.827 247.084C170.59 261.398 175.582 275.162 184.173 286.636C192.764 298.109 204.568 306.776 218.092 311.541C231.615 316.306 246.252 316.955 260.15 313.406C274.047 309.857 286.583 302.269 296.171 291.602C305.759 280.935 311.968 267.667 314.014 253.478C316.06 239.288 313.851 224.813 307.665 211.884L332.592 199.959C356.414 249.753 335.231 309.669 285.416 333.501C235.601 357.333 175.687 336.205 151.865 286.412Z" fill="#F4CA76"/>
<path d="M176.822 274.736C168.508 257.359 167.444 237.387 173.863 219.216C180.283 201.045 193.66 186.162 211.051 177.842C228.443 169.522 248.425 168.445 266.601 174.85C284.778 181.254 299.66 194.615 307.973 211.993L283.013 223.933C277.864 213.17 268.647 204.895 257.389 200.928C246.131 196.961 233.754 197.628 222.982 202.782C212.21 207.935 203.925 217.153 199.949 228.408C195.973 239.662 196.632 252.032 201.781 262.795L176.822 274.736Z" fill="#D6B9FC"/>
<path d="M127.403 297.278L152.343 285.347C175.962 334.716 235.386 355.676 284.822 332.026C334.257 308.376 355.239 248.981 331.608 199.586C307.978 150.191 248.565 129.257 199.13 152.907L187.211 127.993C250.38 97.7735 326.34 124.544 356.535 187.66C386.731 250.777 359.908 326.719 296.74 356.939C233.572 387.159 157.599 360.395 127.403 297.278Z" fill="#EE875E"/>
</svg>
