<svg width="267" height="76" viewBox="0 0 267 76" fill="none" xmlns="http://www.w3.org/2000/svg">
<g opacity="0.8" filter="url(#filter0_b_2165_2143)">
<g clip-path="url(#clip0_2165_2143)">
<path d="M92.7662 34.5668L92.7548 36.7173L82.5374 36.7173L82.5374 20.333L92.7548 20.333L92.7548 22.4834L85.2113 22.4834L85.2113 27.4215L91.2416 27.4215L91.2416 29.5037L85.2113 29.5037L85.2113 34.5668L92.7662 34.5668ZM93.9143 28.8324L99.6829 28.8324L99.6829 30.9031L93.9143 30.9031L93.9143 28.8324ZM113.208 33.065C113.352 33.065 113.477 33.1218 113.583 33.2356L114.641 34.3848C113.974 35.1888 113.155 35.8108 112.184 36.2508C111.213 36.6832 110.052 36.8993 108.702 36.8993C107.504 36.8993 106.419 36.6945 105.448 36.2849C104.485 35.8677 103.662 35.2912 102.979 34.5555C102.296 33.8121 101.769 32.9284 101.398 31.9044C101.033 30.8804 100.851 29.754 100.851 28.5251C100.851 27.2963 101.045 26.1699 101.432 25.1459C101.826 24.1143 102.376 23.2306 103.081 22.4948C103.794 21.7515 104.644 21.175 105.63 20.7654C106.624 20.3558 107.716 20.151 108.907 20.151C110.09 20.151 111.133 20.3444 112.036 20.7312C112.946 21.1105 113.735 21.6187 114.403 22.2559L113.526 23.4961C113.466 23.5795 113.394 23.6516 113.31 23.7123C113.227 23.773 113.113 23.8033 112.969 23.8033C112.817 23.8033 112.643 23.735 112.446 23.5985C112.256 23.4544 112.009 23.2989 111.706 23.132C111.41 22.9575 111.035 22.802 110.58 22.6655C110.132 22.5214 109.571 22.4493 108.896 22.4493C108.114 22.4493 107.397 22.5858 106.745 22.8589C106.093 23.132 105.531 23.5302 105.061 24.0536C104.591 24.577 104.223 25.2142 103.958 25.9651C103.7 26.7161 103.571 27.5694 103.571 28.5251C103.571 29.4885 103.707 30.3494 103.98 31.1079C104.253 31.8589 104.629 32.4961 105.107 33.0194C105.585 33.5352 106.146 33.9297 106.791 34.2028C107.435 34.4758 108.129 34.6124 108.873 34.6124C109.328 34.6124 109.734 34.5896 110.09 34.5441C110.454 34.491 110.788 34.4114 111.092 34.3052C111.395 34.1914 111.679 34.051 111.945 33.8842C112.218 33.7173 112.487 33.5125 112.753 33.2698C112.904 33.1332 113.056 33.065 113.208 33.065ZM126.027 34.5668L126.016 36.7173L115.798 36.7173L115.798 20.333L126.016 20.333L126.016 22.4834L118.472 22.4834L118.472 27.4215L124.503 27.4215L124.503 29.5037L118.472 29.5037L118.472 34.5668L126.027 34.5668ZM137.233 34.4872L137.233 36.7173L127.767 36.7173L127.767 20.333L130.429 20.333L130.429 34.4872L137.233 34.4872ZM147.846 34.4872L147.846 36.7173L138.38 36.7173L138.38 20.333L141.042 20.333L141.042 34.4872L147.846 34.4872Z" fill="#F1E7FF"/>
<path d="M84.2661 58.606L82.3754 58.606L82.3754 44.6397L84.2661 44.6397L84.2661 58.606ZM88.9674 58.606L87.0767 58.606L87.0767 44.6397L88.9674 44.6397L88.9674 58.606ZM101.222 46.2283L96.6998 46.2283L96.6998 58.606L94.8188 58.606L94.8188 46.2283L90.2868 46.2283L90.2868 44.6397L101.222 44.6397L101.222 46.2283ZM117.512 51.8908L117.512 57.2512C116.811 57.758 116.06 58.1381 115.261 58.3915C114.468 58.6384 113.598 58.7619 112.649 58.7619C111.525 58.7619 110.511 58.5897 109.608 58.2453C108.705 57.8945 107.932 57.4072 107.289 56.7834C106.652 56.1532 106.161 55.3995 105.817 54.5223C105.473 53.6451 105.3 52.6803 105.3 51.6277C105.3 50.5621 105.466 49.5907 105.798 48.7136C106.135 47.8364 106.613 47.0859 107.23 46.4622C107.847 45.8319 108.598 45.3446 109.482 45.0003C110.365 44.6559 111.353 44.4837 112.444 44.4837C112.997 44.4837 113.51 44.5259 113.984 44.6104C114.459 44.6884 114.897 44.8053 115.3 44.9613C115.703 45.1107 116.077 45.2959 116.421 45.5168C116.765 45.7312 117.087 45.9749 117.386 46.2478L116.85 47.1054C116.765 47.2354 116.655 47.3199 116.518 47.3588C116.388 47.3913 116.242 47.3588 116.08 47.2614C115.924 47.1704 115.745 47.06 115.544 46.93C115.342 46.8001 115.095 46.6766 114.803 46.5597C114.517 46.4362 114.176 46.3322 113.78 46.2478C113.39 46.1633 112.925 46.1211 112.386 46.1211C111.6 46.1211 110.888 46.251 110.252 46.5109C109.615 46.7643 109.072 47.1314 108.624 47.6122C108.176 48.0866 107.831 48.6648 107.591 49.3471C107.35 50.0228 107.23 50.783 107.23 51.6277C107.23 52.5048 107.354 53.291 107.601 53.9863C107.854 54.675 108.211 55.263 108.673 55.7503C109.14 56.2311 109.706 56.5982 110.368 56.8516C111.031 57.105 111.775 57.2317 112.6 57.2317C113.25 57.2317 113.825 57.1603 114.325 57.0173C114.832 56.8679 115.326 56.6632 115.807 56.4033L115.807 53.3333L113.633 53.3333C113.51 53.3333 113.409 53.2975 113.331 53.2261C113.26 53.1546 113.224 53.0669 113.224 52.9629L113.224 51.8908L117.512 51.8908ZM127.182 48.7331L127.182 58.606L126.149 58.606C125.902 58.606 125.747 58.4858 125.682 58.2453L125.545 57.183C125.116 57.6573 124.635 58.0407 124.103 58.3331C123.57 58.619 122.959 58.7619 122.27 58.7619C121.731 58.7619 121.254 58.6742 120.838 58.4987C120.428 58.3168 120.084 58.0634 119.805 57.7385C119.525 57.4137 119.314 57.0206 119.171 56.5593C119.035 56.0979 118.966 55.5879 118.966 55.0291L118.966 48.7331L120.701 48.7331L120.701 55.0291C120.701 55.7763 120.87 56.3546 121.208 56.7639C121.552 57.1733 122.075 57.3779 122.777 57.3779C123.291 57.3779 123.768 57.2577 124.21 57.0173C124.658 56.7704 125.071 56.4326 125.448 56.0037L125.448 48.7331L127.182 48.7331ZM142.787 48.7331L139.59 58.606L138.216 58.606C138.047 58.606 137.93 58.4955 137.865 58.2746L135.682 51.5789C135.63 51.4295 135.588 51.2801 135.555 51.1306C135.523 50.9747 135.49 50.822 135.458 50.6725C135.425 50.822 135.393 50.9747 135.36 51.1306C135.328 51.2801 135.285 51.4328 135.233 51.5887L133.011 58.2746C132.953 58.4955 132.823 58.606 132.621 58.606L131.315 58.606L128.119 48.7331L129.483 48.7331C129.62 48.7331 129.733 48.7688 129.824 48.8403C129.922 48.9117 129.987 48.9962 130.019 49.0937L131.91 55.4482C132.02 55.916 132.108 56.3578 132.173 56.7737C132.232 56.5593 132.29 56.3416 132.349 56.1207C132.414 55.8998 132.482 55.6756 132.553 55.4482L134.639 49.0547C134.671 48.9572 134.727 48.876 134.805 48.811C134.889 48.7461 134.99 48.7136 135.107 48.7136L135.867 48.7136C135.997 48.7136 136.104 48.7461 136.189 48.811C136.273 48.876 136.332 48.9572 136.364 49.0547L138.401 55.4482C138.472 55.6756 138.537 55.8998 138.596 56.1207C138.654 56.3416 138.71 56.5593 138.762 56.7737C138.794 56.5593 138.833 56.3448 138.879 56.1304C138.93 55.9095 138.986 55.6821 139.044 55.4482L140.974 49.0937C141.006 48.9897 141.068 48.9052 141.159 48.8403C141.25 48.7688 141.357 48.7331 141.481 48.7331L142.787 48.7331ZM148.95 54.1617C148.151 54.1877 147.469 54.2527 146.904 54.3566C146.345 54.4541 145.887 54.584 145.53 54.7465C145.179 54.9089 144.922 55.1006 144.76 55.3215C144.604 55.5424 144.526 55.7893 144.526 56.0622C144.526 56.3221 144.568 56.5463 144.652 56.7347C144.737 56.9231 144.851 57.0791 144.993 57.2025C145.143 57.3195 145.315 57.4072 145.51 57.4657C145.711 57.5176 145.926 57.5436 146.153 57.5436C146.459 57.5436 146.738 57.5144 146.991 57.4559C147.245 57.3909 147.482 57.3 147.703 57.183C147.93 57.0661 148.145 56.9264 148.346 56.7639C148.554 56.6015 148.756 56.4163 148.95 56.2084L148.95 54.1617ZM143.346 50.1268C143.892 49.6005 144.48 49.2074 145.11 48.9475C145.741 48.6876 146.439 48.5576 147.206 48.5576C147.758 48.5576 148.249 48.6486 148.678 48.8305C149.106 49.0124 149.467 49.2658 149.759 49.5907C150.052 49.9156 150.273 50.3087 150.422 50.77C150.572 51.2313 150.646 51.7381 150.646 52.2904L150.646 58.606L149.876 58.606C149.707 58.606 149.577 58.58 149.486 58.528C149.396 58.4695 149.324 58.3591 149.272 58.1966L149.077 57.261C148.817 57.5014 148.564 57.7158 148.317 57.9042C148.07 58.0862 147.81 58.2421 147.537 58.372C147.264 58.4955 146.972 58.5897 146.66 58.6547C146.355 58.7262 146.014 58.7619 145.637 58.7619C145.253 58.7619 144.893 58.7099 144.555 58.606C144.217 58.4955 143.921 58.3331 143.668 58.1186C143.421 57.9042 143.223 57.6346 143.073 57.3097C142.931 56.9783 142.859 56.5885 142.859 56.1402C142.859 55.7503 142.966 55.3767 143.181 55.0194C143.395 54.6555 143.743 54.3339 144.224 54.0545C144.704 53.7751 145.331 53.5477 146.105 53.3722C146.878 53.1903 147.826 53.0864 148.95 53.0604L148.95 52.2904C148.95 51.5237 148.785 50.9454 148.453 50.5556C148.122 50.1592 147.638 49.9611 147.001 49.9611C146.572 49.9611 146.212 50.0163 145.919 50.1268C145.633 50.2307 145.383 50.3509 145.169 50.4874C144.961 50.6173 144.779 50.7375 144.623 50.848C144.474 50.9519 144.324 51.0039 144.175 51.0039C144.058 51.0039 143.957 50.9747 143.873 50.9162C143.788 50.8512 143.717 50.7733 143.658 50.6823L143.346 50.1268ZM154.272 50.0488C154.694 49.6005 155.162 49.2431 155.675 48.9767C156.188 48.7103 156.78 48.5771 157.449 48.5771C157.988 48.5771 158.462 48.6681 158.872 48.85C159.288 49.0254 159.632 49.2788 159.905 49.6102C160.184 49.9351 160.395 50.3282 160.538 50.7895C160.681 51.2508 160.753 51.7609 160.753 52.3197L160.753 58.606L159.008 58.606L159.008 52.3197C159.008 51.5724 158.836 50.9942 158.492 50.5848C158.154 50.169 157.637 49.9611 156.942 49.9611C156.429 49.9611 155.948 50.0845 155.5 50.3314C155.058 50.5783 154.648 50.913 154.272 51.3353L154.272 58.606L152.527 58.606L152.527 44.2498L154.272 44.2498L154.272 50.0488ZM167.985 54.1617C167.186 54.1877 166.504 54.2527 165.938 54.3566C165.38 54.4541 164.921 54.584 164.564 54.7465C164.213 54.9089 163.957 55.1006 163.794 55.3215C163.638 55.5424 163.56 55.7893 163.56 56.0622C163.56 56.3221 163.602 56.5463 163.687 56.7347C163.771 56.9231 163.885 57.0791 164.028 57.2025C164.178 57.3195 164.35 57.4072 164.545 57.4657C164.746 57.5176 164.96 57.5436 165.188 57.5436C165.493 57.5436 165.773 57.5144 166.026 57.4559C166.279 57.3909 166.517 57.3 166.738 57.183C166.965 57.0661 167.179 56.9264 167.381 56.7639C167.589 56.6015 167.79 56.4163 167.985 56.2084L167.985 54.1617ZM162.381 50.1268C162.927 49.6005 163.515 49.2074 164.145 48.9475C164.775 48.6876 165.474 48.5576 166.24 48.5576C166.793 48.5576 167.283 48.6486 167.712 48.8305C168.141 49.0124 168.502 49.2658 168.794 49.5907C169.086 49.9156 169.307 50.3087 169.457 50.77C169.606 51.2313 169.681 51.7381 169.681 52.2904L169.681 58.606L168.911 58.606C168.742 58.606 168.612 58.58 168.521 58.528C168.43 58.4695 168.359 58.3591 168.307 58.1966L168.112 57.261C167.852 57.5014 167.598 57.7158 167.352 57.9042C167.105 58.0862 166.845 58.2421 166.572 58.372C166.299 58.4955 166.007 58.5897 165.695 58.6547C165.389 58.7262 165.048 58.7619 164.671 58.7619C164.288 58.7619 163.927 58.7099 163.589 58.606C163.252 58.4955 162.956 58.3331 162.703 58.1186C162.456 57.9042 162.258 57.6346 162.108 57.3097C161.965 56.9783 161.894 56.5885 161.894 56.1402C161.894 55.7503 162.001 55.3767 162.215 55.0194C162.43 54.6555 162.777 54.3339 163.258 54.0545C163.739 53.7751 164.366 53.5477 165.139 53.3722C165.912 53.1903 166.861 53.0864 167.985 53.0604L167.985 52.2904C167.985 51.5237 167.819 50.9454 167.488 50.5556C167.157 50.1592 166.673 49.9611 166.036 49.9611C165.607 49.9611 165.246 50.0163 164.954 50.1268C164.668 50.2307 164.418 50.3509 164.203 50.4874C163.996 50.6173 163.814 50.7375 163.658 50.848C163.508 50.9519 163.359 51.0039 163.209 51.0039C163.092 51.0039 162.992 50.9747 162.907 50.9162C162.823 50.8512 162.751 50.7733 162.693 50.6823L162.381 50.1268ZM180.59 58.606L178.855 58.606L178.855 50.1852L173.767 50.1852L173.767 56.1109C173.767 56.5268 173.868 56.8354 174.07 57.0368C174.271 57.2382 174.531 57.339 174.849 57.339C175.031 57.339 175.187 57.3162 175.317 57.2707C175.453 57.2187 175.57 57.1635 175.668 57.105C175.765 57.0466 175.847 56.9946 175.912 56.9491C175.983 56.8971 176.045 56.8711 176.097 56.8711C176.188 56.8711 176.269 56.9264 176.34 57.0368L176.847 57.8652C176.548 58.1446 176.188 58.3656 175.765 58.528C175.343 58.6839 174.908 58.7619 174.459 58.7619C173.68 58.7619 173.079 58.5442 172.656 58.1089C172.24 57.6736 172.033 57.0466 172.033 56.2279L172.033 50.1852L170.844 50.1852C170.74 50.1852 170.652 50.156 170.58 50.0975C170.509 50.0325 170.473 49.9351 170.473 49.8051L170.473 49.1132L172.091 48.8987L172.491 45.8579C172.51 45.7605 172.552 45.6825 172.617 45.624C172.689 45.559 172.78 45.5266 172.89 45.5266L173.767 45.5266L173.767 48.928L180.59 48.928L180.59 58.606ZM181.019 45.5655C181.019 45.7345 180.983 45.8937 180.911 46.0431C180.846 46.186 180.755 46.3127 180.638 46.4232C180.528 46.5337 180.398 46.6214 180.249 46.6864C180.099 46.7513 179.94 46.7838 179.771 46.7838C179.602 46.7838 179.443 46.7513 179.293 46.6864C179.151 46.6214 179.024 46.5337 178.913 46.4232C178.803 46.3127 178.715 46.186 178.65 46.0431C178.585 45.8937 178.553 45.7345 178.553 45.5655C178.553 45.3966 178.585 45.2374 178.65 45.088C178.715 44.932 178.803 44.7988 178.913 44.6884C179.024 44.5714 179.151 44.4805 179.293 44.4155C179.443 44.3505 179.602 44.318 179.771 44.318C179.94 44.318 180.099 44.3505 180.249 44.4155C180.398 44.4805 180.528 44.5714 180.638 44.6884C180.755 44.7988 180.846 44.932 180.911 45.088C180.983 45.2374 181.019 45.3966 181.019 45.5655Z" fill="#F1E7FF"/>
<path d="M33.4164 33.1307C33.62 34.5654 34.3258 35.8813 35.4085 36.8445C35.9465 37.2528 36.5597 37.5509 37.2131 37.722C37.8664 37.893 38.5471 37.9335 39.2162 37.8411C40.8455 37.7151 42.4655 37.4884 44.0669 37.1624C46.0563 36.813 47.9166 35.9395 49.456 34.6318C50.301 33.9261 50.9436 33.0088 51.3182 31.9736C51.6929 30.9384 51.7861 29.8223 51.5884 28.7393C50.8621 24.3818 48.1676 21.4643 44.3949 19.4496C42.344 18.376 40.0543 17.84 37.7399 17.8919C34.7425 17.8677 31.8156 18.8014 29.3859 20.5568C26.9561 22.3122 25.1504 24.7977 24.2319 27.651C23.6612 29.5425 23.4851 31.531 23.7147 33.4933C23.9444 35.4556 24.5747 37.3498 25.5668 39.0583C26.4921 40.745 27.629 42.3151 28.6482 43.9554C29.6553 45.4285 30.2129 47.1624 30.2535 48.9464C30.3304 49.6408 30.6498 50.2859 31.1555 50.768C31.6612 51.2502 32.3208 51.5384 33.0182 51.5821H42.4492C43.1291 51.5788 43.7876 51.3438 44.316 50.9158C44.8443 50.4878 45.211 49.8925 45.3553 49.228C45.3666 49.1579 45.3904 49.0753 45.4017 48.9701H47.3814C47.3643 49.6018 47.2172 50.2232 46.9492 50.7954C46.6812 51.3677 46.298 51.8785 45.8237 52.2959C45.5884 52.5312 45.3191 52.7179 45.0623 52.9407C44.5241 53.3973 43.8343 53.6354 43.1291 53.6082C39.4616 53.5731 35.7829 53.5968 32.1154 53.5844C31.7557 53.5713 31.4052 53.4666 31.0973 53.2801C29.9211 52.6348 29.0025 51.6048 28.4955 50.3627C28.3516 50.0017 28.2682 49.6195 28.2489 49.2314C28.2008 47.5227 27.6189 45.872 26.5849 44.5108C25.0463 42.4934 23.7674 40.2906 22.7783 37.9542C21.0916 33.2212 21.0215 28.5119 23.5634 24.0718C24.8345 21.7621 26.666 19.809 28.8895 18.3923C31.1129 16.9756 33.6569 16.1406 36.2874 15.9643C38.4753 15.7165 40.6907 15.9225 42.7953 16.5695C44.9 17.2164 46.8485 18.2905 48.5194 19.7245C51.1652 21.813 52.97 24.7848 53.6031 28.0956C53.832 29.3178 53.7978 30.5748 53.5029 31.7828C53.2079 32.9907 52.659 34.122 51.8927 35.1013C50.2133 37.221 48.0577 38.9146 45.6008 40.0447C43.7095 41.109 41.6043 41.7375 39.439 41.8841C37.3385 42.0221 35.2301 41.9843 33.1358 41.771C31.5863 41.5135 30.1745 40.7251 29.1426 39.5408C28.1106 38.3565 27.5228 36.8502 27.4797 35.28C27.2637 32.6584 27.7698 30.0278 28.943 27.6734C30.1162 25.3191 31.9117 23.331 34.1347 21.9248C35.0505 21.2674 36.0914 20.8047 37.193 20.5654C38.2947 20.3261 39.4337 20.3152 40.5397 20.5333C41.2059 20.6059 41.8452 20.8365 42.4043 21.2061C42.9634 21.5756 43.4261 22.0734 43.7539 22.6579C44.0817 23.2425 44.2651 23.8969 44.2889 24.5667C44.3126 25.2364 44.176 25.9022 43.8904 26.5085C43.152 28.2402 41.7744 29.6206 40.0442 30.3626C38.1811 31.2879 36.2252 32.0029 34.3032 32.8105C34.0136 32.9331 33.7175 33.0399 33.4164 33.1307ZM33.1822 31.2325C34.2621 31.0087 35.2954 30.6004 36.2365 30.0255C37.27 29.5003 38.1221 28.677 38.6824 27.6621C39.2426 26.6472 39.4853 25.4875 39.3791 24.3331C39.4093 23.9869 39.335 23.6396 39.1658 23.3361C38.9967 23.0325 38.7403 22.7867 38.43 22.6303C38.1197 22.4739 37.7696 22.4141 37.4249 22.4588C37.0803 22.5034 36.757 22.6504 36.4967 22.8806C36.2957 23.0015 36.1106 23.1471 35.9458 23.3139C33.7682 25.4926 33.2636 28.2574 33.1822 31.2325Z" fill="#F1E7FF"/>
<path d="M30.8404 56.9263C30.7282 56.9833 30.6047 57.0148 30.4789 57.0185C30.353 57.0222 30.2279 56.998 30.1125 56.9476C29.9971 56.8972 29.8943 56.8219 29.8115 56.7271C29.7286 56.6322 29.6678 56.5202 29.6334 56.3991C29.2995 55.9293 28.7943 55.6095 28.2268 55.5086C27.6593 55.4077 27.0749 55.5337 26.5995 55.8595C25.1696 56.9263 25.3551 59.7611 26.2601 60.7238C26.5098 60.9709 26.8172 61.1517 27.1545 61.2498C27.4917 61.3479 27.8481 61.3603 28.1914 61.2858C28.5347 61.2113 28.8539 61.0523 29.1201 60.8232C29.3864 60.5941 29.5912 60.3021 29.716 59.9738C29.9502 59.2951 30.3257 59.2238 30.8993 59.3765C30.8791 60.0884 30.6043 60.7695 30.1249 61.296C29.6454 61.8226 28.993 62.1598 28.2861 62.2464C25.1345 62.5394 24.3381 60.0202 24.432 58.0292C24.4453 57.7967 24.4766 57.5656 24.5259 57.338C24.5953 56.7513 24.8274 56.1956 25.196 55.7338C25.5646 55.272 26.0551 54.9226 26.6119 54.7249C27.1827 54.4857 27.8083 54.4084 28.4201 54.5014C29.0319 54.5944 29.6063 54.8541 30.0803 55.2521C30.3195 55.4604 30.5112 55.7177 30.6424 56.0065C30.7735 56.2954 30.8411 56.609 30.8404 56.9263Z" fill="#F1E7FF"/>
<path d="M38.0547 54.839H42.3194C42.988 54.839 43.2923 55.0969 43.316 55.6309C43.327 55.7536 43.3103 55.8773 43.2672 55.9928C43.224 56.1082 43.1556 56.2126 43.0668 56.2981C42.978 56.3836 42.8712 56.4481 42.7542 56.4869C42.6372 56.5257 42.513 56.5378 42.3907 56.5223C40.8556 56.5573 39.3092 56.546 37.7742 56.546C36.3681 56.546 34.9744 56.5336 33.5683 56.5223C33.135 56.5223 32.7594 56.3232 32.7368 55.8662C32.7394 55.5512 32.8465 55.2461 33.0411 54.9985C33.1463 54.8582 33.4631 54.8345 33.6859 54.8345L38.0547 54.839Z" fill="#F1E7FF"/>
<path d="M21.5954 19.4572C21.5841 20.1246 21.2674 20.5884 20.7165 20.6167C20.2389 20.6489 19.7606 20.5647 19.3228 20.3712C18.4345 19.9268 17.5702 19.4359 16.7334 18.9006C16.4201 18.6773 16.1534 18.3948 15.9484 18.0692C15.7979 17.8961 15.72 17.6716 15.731 17.4425C15.742 17.2135 15.8409 16.9975 16.0072 16.8395C16.3575 16.5919 16.7643 16.4363 17.1905 16.387C17.4658 16.379 17.7366 16.4582 17.9642 16.6133C18.9133 17.1404 19.8624 17.6789 20.7991 18.2536C21.0227 18.3706 21.2129 18.5424 21.3522 18.7529C21.4915 18.9633 21.5751 19.2056 21.5954 19.4572Z" fill="#F1E7FF"/>
<path d="M54.3157 20.8181C53.9639 20.5839 53.4481 20.4199 53.3203 20.0918C53.2479 19.6532 53.2797 19.2037 53.413 18.7796C53.4266 18.7221 53.4526 18.6682 53.4891 18.6217C53.5256 18.5752 53.5719 18.5372 53.6246 18.5104C54.8904 17.7955 56.1314 17.0455 57.4323 16.4131C57.6793 16.3055 57.9579 16.2952 58.2122 16.3844C58.4664 16.4735 58.6776 16.6555 58.8033 16.8939C58.9507 17.1067 59.0174 17.3651 58.9917 17.6227C58.966 17.8803 58.8495 18.1204 58.663 18.3C57.516 19.3473 56.1693 20.1522 54.7037 20.6665C54.6075 20.687 54.509 20.695 54.4108 20.6903C54.3702 20.7255 54.3378 20.7691 54.3157 20.8181Z" fill="#F1E7FF"/>
<path d="M46.0007 12.1824C46.0619 11.88 46.1559 11.5853 46.2813 11.3034C46.7734 10.3984 47.2994 9.52285 47.8163 8.62014C47.8401 8.58507 47.8514 8.55 47.8752 8.51493C48.0533 8.21118 48.3346 7.98145 48.6677 7.86748C49.0009 7.75351 49.3639 7.76288 49.6908 7.89389C49.8339 7.98003 49.9586 8.09352 50.0578 8.22787C50.157 8.36221 50.2288 8.51479 50.269 8.67688C50.3092 8.83897 50.3171 9.0074 50.2923 9.17254C50.2674 9.33769 50.2102 9.49632 50.1241 9.63937C49.5934 10.7409 48.9784 11.7999 48.2847 12.8068C48.184 12.9874 48.0388 13.1393 47.8629 13.2481C47.687 13.3568 47.4863 13.4189 47.2797 13.4283C47.0731 13.4377 46.8676 13.3942 46.6826 13.3018C46.4975 13.2095 46.3391 13.0714 46.2225 12.9007C46.1209 12.6707 46.0465 12.4296 46.0007 12.1824Z" fill="#F1E7FF"/>
<path d="M27.6765 13.4004C27.3814 13.4173 27.0878 13.3476 26.8318 13.1999C26.5757 13.0522 26.3684 12.8329 26.2353 12.5689C25.7082 11.7024 25.2172 10.8235 24.724 9.93318C24.6286 9.76582 24.5613 9.5839 24.5249 9.39471C24.4318 9.12367 24.4332 8.82907 24.5289 8.55893C24.6246 8.28879 24.809 8.05905 25.0521 7.90715C25.3178 7.77277 25.6231 7.73906 25.9117 7.81225C26.2003 7.88544 26.4527 8.06058 26.6222 8.30534C27.1518 9.051 27.6332 9.82974 28.0634 10.6368C28.3166 11.0699 28.5211 11.5298 28.6731 12.0079C28.7242 12.1663 28.7375 12.3345 28.7119 12.499C28.6862 12.6635 28.6224 12.8197 28.5255 12.9551C28.4286 13.0905 28.3013 13.2013 28.1539 13.2786C28.0065 13.3559 27.843 13.3976 27.6765 13.4004Z" fill="#F1E7FF"/>
<path d="M37.9393 59.2354H35.0637C34.4189 59.2354 34.1384 59.0001 34.1146 58.474C34.0911 58.3521 34.0967 58.2263 34.1308 58.1069C34.1649 57.9874 34.2266 57.8777 34.3109 57.7865C34.3953 57.6953 34.4999 57.6253 34.6163 57.582C34.7328 57.5387 34.8577 57.5234 34.9812 57.5374C36.9846 57.5136 38.9993 57.5136 41.0151 57.5261C41.2513 57.5365 41.4755 57.6327 41.6458 57.7966C41.8161 57.9605 41.9209 58.1808 41.9405 58.4164C41.9313 58.5385 41.8972 58.6576 41.8402 58.766C41.7832 58.8745 41.7045 58.9701 41.6091 59.047C41.5137 59.1239 41.4035 59.1803 41.2854 59.2129C41.1673 59.2455 41.0437 59.2535 40.9224 59.2365L37.9393 59.2354Z" fill="#F1E7FF"/>
<path d="M58.9001 28.1518C59.3922 28.1518 59.8719 28.1405 60.3639 28.1518C60.6875 28.1326 61.007 28.2312 61.2635 28.4294C61.5199 28.6276 61.6959 28.912 61.7587 29.2299C61.7661 29.3787 61.7431 29.5275 61.6909 29.6671C61.6388 29.8067 61.5586 29.9341 61.4555 30.0416C61.3523 30.1492 61.2283 30.2345 61.0909 30.2923C60.9536 30.3502 60.8059 30.3794 60.6569 30.3781C59.4789 30.4697 58.2952 30.4618 57.1184 30.3543C56.9744 30.3489 56.8331 30.3133 56.7036 30.25C56.5741 30.1866 56.4594 30.0969 56.3667 29.9865C56.274 29.8761 56.2054 29.7475 56.1654 29.609C56.1253 29.4705 56.1147 29.3252 56.1343 29.1824C56.1949 28.8943 56.3505 28.6349 56.5762 28.4458C56.8018 28.2567 57.0844 28.1488 57.3786 28.1394C57.8922 28.1394 58.3967 28.1518 58.9001 28.1518Z" fill="#F1E7FF"/>
<path d="M15.8431 28.1481C16.3115 28.1481 16.7809 28.1368 17.2493 28.1481C17.5736 28.1395 17.8907 28.245 18.1454 28.4461C18.4 28.6472 18.5761 28.9312 18.6429 29.2488C18.6412 29.5464 18.5221 29.8314 18.3116 30.0419C18.1011 30.2524 17.8162 30.3714 17.5185 30.3732C16.3599 30.459 15.1962 30.4511 14.0388 30.3494C13.8902 30.3538 13.7425 30.3245 13.6067 30.2637C13.471 30.203 13.3508 30.1123 13.255 29.9985C13.1593 29.8847 13.0905 29.7507 13.0539 29.6066C13.0172 29.4624 13.0136 29.3119 13.0434 29.1662C13.0779 28.8823 13.2173 28.6216 13.4341 28.4352C13.6509 28.2487 13.9295 28.15 14.2153 28.1583C14.7425 28.1232 15.2934 28.1583 15.8443 28.1469L15.8431 28.1481Z" fill="#F1E7FF"/>
<path d="M36.1714 7.46159C36.2302 7.0091 36.2653 6.30207 36.4056 5.63352C36.4551 5.411 36.5886 5.2162 36.7783 5.08974C36.968 4.96328 37.1992 4.91493 37.4237 4.95478C37.6491 4.95606 37.8675 5.03304 38.0439 5.17335C38.2204 5.31367 38.3445 5.5092 38.3965 5.72854C38.4766 5.94659 38.5239 6.17533 38.5368 6.40728C38.5255 7.45027 38.5255 8.50457 38.4316 9.54756C38.4099 9.81442 38.2901 10.0638 38.0954 10.2476C37.9008 10.4314 37.6449 10.5367 37.3773 10.543C37.1108 10.5351 36.8562 10.4311 36.6604 10.2502C36.4646 10.0694 36.3407 9.82385 36.3117 9.55888C36.2264 8.86289 36.1796 8.16273 36.1714 7.46159Z" fill="#F1E7FF"/>
<path d="M51.0846 61.1889H54.7169C54.7282 61.4695 54.7407 61.7048 54.7644 62.0091H50.0857V54.793H51.0812L51.0846 61.1889Z" fill="#F1E7FF"/>
<path d="M49.1049 61.1663V62.0215H44.477C44.4478 61.9023 44.4281 61.7808 44.4182 61.6584V55.2262C44.4182 54.371 45.0506 54.8869 45.4612 54.7228V61.1708L49.1049 61.1663Z" fill="#F1E7FF"/>
<path d="M40.9389 70.2219C41.1493 69.3542 41.3609 68.499 41.5724 67.6325C41.7002 67.1167 41.7127 67.1167 42.3563 67.2456C42.2432 67.6789 42.1301 68.1009 42.0283 68.5217C41.802 69.3656 41.6063 70.2185 41.3609 71.0522C41.3133 71.2276 41.0792 71.4742 40.9389 71.4629C40.8283 71.4442 40.7237 71.3994 40.634 71.3321C40.5442 71.2648 40.4719 71.177 40.4231 71.076C40.1776 70.361 40.0011 69.6235 39.7907 68.8972C39.7443 68.7095 39.6618 68.5341 39.5566 68.2185C39.2749 69.2366 39.0407 70.1167 38.7828 70.9945C38.7126 71.2524 38.6776 71.5104 38.2794 71.5104C37.8812 71.5104 37.8574 71.2411 37.7873 70.9945C37.4593 69.7502 37.1425 68.5228 36.8145 67.2615C37.2828 67.0352 37.5407 67.1563 37.6346 67.6608C37.8099 68.516 38.009 69.3576 38.2002 70.2027C38.2466 70.2027 38.3054 70.214 38.3529 70.214C38.5871 69.3475 38.8212 68.4809 39.0792 67.6257C39.1255 67.4617 39.2319 67.2162 39.3608 67.18C39.6651 67.0975 39.9581 67.1099 40.0633 67.5443C40.2737 68.4493 40.5441 69.3248 40.7783 70.214C40.8314 70.2217 40.8852 70.2243 40.9389 70.2219Z" fill="#F1E7FF"/>
<path d="M37.9276 61.7518C37.2489 61.7518 36.5701 61.7643 35.8914 61.7518C35.7748 61.7595 35.6579 61.7435 35.5476 61.7049C35.4373 61.6663 35.3359 61.6059 35.2495 61.5272C35.1631 61.4485 35.0935 61.3532 35.0448 61.247C34.9961 61.1408 34.9693 61.0259 34.9661 60.9091C34.9804 60.6726 35.0838 60.4504 35.2556 60.2873C35.4273 60.1241 35.6546 60.0322 35.8914 60.0301C37.3088 60.0188 38.7387 60.0188 40.1561 60.0301C40.2736 60.0261 40.3907 60.0464 40.4999 60.0899C40.6091 60.1333 40.7081 60.199 40.7907 60.2826C40.8733 60.3663 40.9377 60.4661 40.9797 60.5759C41.0218 60.6857 41.0406 60.8029 41.0351 60.9204C41.0303 61.0373 41.0019 61.152 40.9518 61.2577C40.9016 61.3634 40.8306 61.4579 40.743 61.5355C40.6555 61.6132 40.5532 61.6723 40.4422 61.7095C40.3313 61.7467 40.214 61.7611 40.0973 61.7518H37.9276Z" fill="#F1E7FF"/>
<path d="M31.7543 68.5454C31.5142 68.4375 31.2957 68.2869 31.1095 68.1008C30.9912 67.9469 30.8408 67.8206 30.6687 67.7308C30.4967 67.641 30.3071 67.5898 30.1132 67.5809C29.9193 67.572 29.7258 67.6055 29.5462 67.679C29.3665 67.7526 29.2052 67.8645 29.0733 68.0069C28.8032 68.367 28.6486 68.8005 28.6299 69.2502C28.6111 69.6999 28.729 70.1448 28.9681 70.5262C29.144 70.7496 29.3849 70.9131 29.6575 70.9941C29.9302 71.0752 30.2212 71.0698 30.4907 70.9786C30.7496 70.9225 30.9765 70.7676 31.1231 70.5469C31.2697 70.3262 31.3245 70.057 31.2758 69.7965C30.0314 69.5612 30.0314 69.5612 30.0687 69.1517C30.5846 69.1517 31.1117 69.128 31.6276 69.1642C31.7082 69.1862 31.7824 69.2275 31.8436 69.2844C31.9049 69.3413 31.9515 69.4122 31.9794 69.4911C32.0144 70.1359 31.9907 70.7682 31.9907 71.5533C31.6977 71.413 31.4873 71.3067 31.2882 71.2139C31.046 71.4002 30.7656 71.5306 30.467 71.5959C30.1685 71.6611 29.8592 71.6594 29.5614 71.5911C29.2636 71.5228 28.9845 71.3895 28.7443 71.2007C28.504 71.0119 28.3085 70.7722 28.1717 70.499C28.0186 70.206 27.9256 69.8854 27.8982 69.556C27.8708 69.2265 27.9095 68.895 28.012 68.5807C28.1146 68.2664 28.2789 67.9758 28.4953 67.726C28.7117 67.4761 28.9759 67.272 29.2724 67.1257C29.5205 67.0095 29.7912 66.9496 30.0652 66.9503C30.3391 66.9511 30.6095 67.0124 30.857 67.1299C31.1045 67.2474 31.3229 67.4182 31.4966 67.6301C31.6703 67.842 31.795 68.0896 31.8617 68.3553C31.8305 68.4212 31.7946 68.4847 31.7543 68.5454Z" fill="#F1E7FF"/>
<path d="M50.2765 71.4613H49.6203C49.6203 70.9579 49.609 70.4658 49.6203 69.985C49.6441 69.5981 49.4801 69.4465 49.1056 69.4929H49.0468C47.488 69.4579 47.4993 69.4578 47.4416 71.0042C47.4303 71.1683 47.2425 71.3323 47.1373 71.4963C47.0242 71.3447 46.8092 71.1807 46.8092 71.028C46.7855 69.7621 46.7979 68.4974 46.7979 67.2554C47.2663 67.08 47.454 67.1615 47.4654 67.6185C47.5242 68.9307 47.5355 68.9307 48.8477 68.9307H49.6215C49.6215 68.4861 49.6339 68.0992 49.6215 67.7124C49.5989 67.244 49.7742 67.0563 50.2776 67.2203L50.2765 71.4613Z" fill="#F1E7FF"/>
<path d="M35.6316 67.1843H36.3702C36.3114 68.3314 36.3227 69.457 36.1598 70.5701C36.0467 71.4015 35.1417 71.7647 34.0275 71.6119C33.6842 71.5676 33.37 71.3963 33.1466 71.1319C32.9232 70.8675 32.8069 70.5291 32.8205 70.1832C32.8091 69.1866 32.8205 68.2036 32.8205 67.1843H33.5139C33.5139 68.1447 33.5026 69.0938 33.5139 70.0418C33.505 70.2281 33.549 70.4131 33.6408 70.5754C33.7326 70.7377 33.8685 70.8707 34.0328 70.959C34.1971 71.0473 34.383 71.0873 34.569 71.0743C34.7551 71.0613 34.9336 70.9959 35.084 70.8857C35.3971 70.5893 35.5856 70.1848 35.6112 69.7545C35.6893 68.9219 35.6316 68.078 35.6316 67.1843Z" fill="#F1E7FF"/>
<path d="M46.3411 71.404C45.7901 71.6031 45.5492 71.439 45.4508 70.9515C45.3693 70.5408 45.2053 70.1789 44.6431 70.249C44.1148 70.3078 43.4711 70.0375 43.3309 70.8927C43.2483 71.3372 43.0503 71.6777 42.4395 71.4198C42.944 70.1087 43.4361 68.7841 43.9632 67.4718C44.0154 67.3931 44.0846 67.3271 44.1656 67.2785C44.2466 67.23 44.3375 67.2002 44.4315 67.1913C44.5202 67.1929 44.607 67.2162 44.6845 67.2592C44.7621 67.3022 44.8278 67.3636 44.8761 67.4379C45.3931 68.7445 45.8614 70.068 46.3411 71.404ZM43.7992 69.6347H45.0062C44.8071 69.0838 44.6431 68.6166 44.4666 68.1585C44.4233 68.156 44.3799 68.1599 44.3376 68.1698C44.1623 68.6381 43.987 69.0963 43.7992 69.6347Z" fill="#F1E7FF"/>
<path d="M54.6698 71.4062C54.1042 71.6053 53.8859 71.4299 53.7795 70.9729C53.7207 70.7263 53.568 70.3406 53.404 70.3168C52.9281 70.2235 52.4387 70.2235 51.9628 70.3168C51.8101 70.3519 51.6822 70.7501 51.6234 71.008C51.5103 71.4763 51.2354 71.594 50.7671 71.4175C51.2716 70.0827 51.775 68.7591 52.2909 67.4458C52.3382 67.3712 52.4018 67.3083 52.4768 67.2617C52.5518 67.2151 52.6363 67.186 52.7241 67.1765C52.8133 67.1723 52.9023 67.1893 52.9837 67.226C53.0651 67.2628 53.1366 67.3183 53.1924 67.3881C53.6981 68.7116 54.1664 70.0465 54.6698 71.4062ZM53.344 69.6765C53.1325 69.1109 52.9458 68.6584 52.7694 68.189C52.7223 68.1872 52.6752 68.191 52.6291 68.2003C52.4651 68.6686 52.301 69.1381 52.1132 69.6765H53.344Z" fill="#F1E7FF"/>
<path d="M25.9431 67.1496C26.1422 67.618 25.9194 67.7005 25.5687 67.7152C24.5958 67.7503 24.5958 67.7628 24.5958 68.7333C24.5958 69.472 24.5721 70.2096 24.6071 70.9596C24.6309 71.4517 24.4431 71.592 23.9284 71.4121C23.9284 70.4404 23.9047 69.4438 23.9397 68.4596C23.9635 67.9211 23.8345 67.6757 23.2372 67.6983C22.9793 67.7096 22.4985 67.5105 22.4985 67.429C22.5336 66.9245 22.9669 67.1711 23.2248 67.1598C24.1275 67.1372 25.0404 67.1496 25.9431 67.1496Z" fill="#F1E7FF"/>
<path d="M56.8606 71.4274C56.2747 71.6027 56.1457 71.3799 56.1581 70.9229C56.1819 70.0326 56.1457 69.131 56.1695 68.2407C56.1819 67.8188 56.0179 67.6751 55.6185 67.7136C55.4077 67.7351 55.1948 67.7271 54.9862 67.6898C54.9317 67.6687 54.8836 67.6338 54.8466 67.5886C54.8095 67.5435 54.7847 67.4895 54.7747 67.4319C54.7747 67.3493 54.9161 67.1864 55.0009 67.1864C56.0311 67.1744 57.062 67.1744 58.0937 67.1864C58.1638 67.1864 58.3052 67.3267 58.2928 67.3968C58.283 67.4574 58.2614 67.5155 58.2292 67.5677C58.197 67.6199 58.1548 67.6652 58.105 67.7011C58.0224 67.7599 57.8787 67.7249 57.7656 67.7373C56.8606 67.7724 56.8606 67.7724 56.8606 68.709V71.4274Z" fill="#F1E7FF"/>
<path d="M21.2681 67.1843H21.8654V71.4604C21.6663 71.4717 21.4909 71.4841 21.2681 71.4954V67.1843Z" fill="#F1E7FF"/>
<path d="M59.4969 71.4621H58.8997V67.2087C59.0874 67.1974 59.2752 67.1737 59.4969 67.1499V71.4621Z" fill="#F1E7FF"/>
<path d="M19.5806 67.1843H20.2718V69.5735C20.2718 70.1018 20.2955 70.6289 20.2605 71.1436C20.2491 71.2567 20.0501 71.3789 19.9324 71.4954C19.8193 71.3823 19.6044 71.2613 19.6044 71.1436C19.5693 69.8472 19.5806 68.5418 19.5806 67.1843Z" fill="#F1E7FF"/>
</g>
</g>
<line x1="210.683" y1="9.83154" x2="210.683" y2="66.7516" stroke="#F1E7FF" stroke-width="1.58111"/>
<path d="M242.438 11.9418L222.986 11.9418L222.986 24.1098C222.986 28.48 225.346 37.7345 236.183 37.7345C246.123 37.7345 249.208 29.5083 249.122 25.1381C249.208 29.5083 252.806 38.163 262.404 38.163C252.875 38.163 249.122 48.103 249.122 52.7303C249.122 48.1316 246.534 38.8999 236.183 38.7628C225.831 38.6257 222.986 47.2461 222.986 52.0448L222.986 64.6412L242.438 64.6412C250.664 64.6412 267.46 57.3576 266.431 38.163C265.403 18.9684 249.807 11.9418 242.438 11.9418Z" fill="#F1E7FF"/>
<path d="M221.434 33.1072C221.536 35.8923 223.822 38.127 226.671 38.227C223.822 38.3269 221.536 40.5616 221.434 43.3467C221.331 40.5616 219.066 38.3269 216.217 38.227C219.066 38.127 221.331 35.8923 221.434 33.1072Z" fill="#F1E7FF"/>
<defs>
<filter id="filter0_b_2165_2143" x="-26.1656" y="-25.2908" width="255.899" height="127.165" filterUnits="userSpaceOnUse" color-interpolation-filters="sRGB">
<feFlood flood-opacity="0" result="BackgroundImageFix"/>
<feGaussianBlur in="BackgroundImageFix" stdDeviation="13.0828"/>
<feComposite in2="SourceAlpha" operator="in" result="effect1_backgroundBlur_2165_2143"/>
<feBlend mode="normal" in="SourceGraphic" in2="effect1_backgroundBlur_2165_2143" result="shape"/>
</filter>
<clipPath id="clip0_2165_2143">
<rect y="0.874756" width="203.568" height="74.8335" rx="37.4168" fill="white"/>
</clipPath>
</defs>
</svg>
