<svg width="272" height="38" viewBox="0 0 272 38" fill="none" xmlns="http://www.w3.org/2000/svg">
<path d="M0.409538 19.3C0.324481 19.0646 0.557914 18.85 0.970646 18.7711C84.7969 4.03945 185.616 5.64772 270.041 28.8469C270.509 28.9784 270.773 29.2529 270.687 29.5094C270.623 29.6067 270.511 29.6822 270.374 29.7222C270.237 29.7623 270.083 29.7641 269.939 29.7274C182.324 13.5695 86.8856 5.86649 1.21957 19.5732C1.06637 19.6058 0.90003 19.5962 0.75117 19.546C0.60231 19.4957 0.480964 19.4084 0.409538 19.3Z" fill="#C15A47"/>
<path d="M63.1495 21.1523C110.535 15.7022 182.785 20.0062 229.324 31.3696C230.176 31.5765 229.782 32.2312 228.895 32.0772C181.149 23.7655 111.743 19.6047 63.4892 21.9098C62.5896 21.9525 62.2776 21.252 63.1495 21.1523Z" fill="#C15A47"/>
<path d="M238.369 32.7621C241.621 33.0181 244.813 33.6791 247.806 34.7168C249.222 35.2178 248.567 36.3243 246.926 36.1903C243.667 35.9382 240.468 35.2765 237.471 34.2344C236.074 33.7346 236.735 32.6285 238.369 32.7621Z" fill="#C15A47"/>
</svg>
