<svg width="43" height="43" viewBox="0 0 43 43" fill="none" xmlns="http://www.w3.org/2000/svg">
<g clip-path="url(#clip0_2165_2252)">
<path d="M21.3142 0.449829C9.65724 0.449829 0.206055 9.90102 0.206055 21.558C0.206055 32.1402 8.00201 40.879 18.1586 42.4058V27.1517H12.936V21.6037H18.1586V17.9116C18.1586 11.799 21.1366 9.1165 26.2166 9.1165C28.6493 9.1165 29.9369 9.29767 30.5455 9.37859V14.2212H27.0803C24.9237 14.2212 24.1709 16.2669 24.1709 18.5712V21.6037H30.491L29.6344 27.1517H24.1709V42.4498C34.4734 41.0532 42.4224 32.244 42.4224 21.558C42.4224 9.90102 32.9712 0.449829 21.3142 0.449829Z" fill="white"/>
</g>
<defs>
<clipPath id="clip0_2165_2252">
<rect width="42" height="42" fill="white" transform="translate(0.228027 0.449493)"/>
</clipPath>
</defs>
</svg>
