<svg width="43" height="43" viewBox="0 0 43 43" fill="none" xmlns="http://www.w3.org/2000/svg">
<g clip-path="url(#clip0_2165_2249)">
<path d="M7.21384 0.449432C3.34786 0.449432 0.213867 3.58342 0.213867 7.44941V35.4493C0.213867 39.3153 3.34786 42.4493 7.21384 42.4493H35.2138C39.0797 42.4493 42.2137 39.3153 42.2137 35.4493V7.44941C42.2137 3.58342 39.0797 0.449432 35.2138 0.449432H7.21384ZM9.29978 9.4494H17.2372L22.8739 17.4591L29.7138 9.4494H32.2138L24.0029 19.0627L34.1278 33.4493H26.1923L19.6513 24.1564L11.7138 33.4493H9.21384L18.5224 22.5529L9.29978 9.4494ZM13.1279 11.4494L27.2353 31.4493H30.2997L16.1923 11.4494H13.1279Z" fill="white"/>
</g>
<defs>
<clipPath id="clip0_2165_2249">
<rect width="42" height="42" fill="white" transform="translate(0.213867 0.449493)"/>
</clipPath>
</defs>
</svg>
