<svg width="362" height="55" viewBox="0 0 362 55" fill="none" xmlns="http://www.w3.org/2000/svg">
<path d="M19.0785 -3.0977e-06C26.0785 -3.09718e-06 30.1785 2.5 33.9785 4.8L27.9785 13.4C25.5785 11.9 22.7785 10.5 19.0785 10.5C16.2785 10.5 12.9785 12.2 12.9785 15.3C12.9785 18.4 18.4785 20.1 21.2785 21C29.8785 23.3 37.0785 28.6 37.0785 37.4L37.0785 37.5C37.0785 46 29.9785 54.3 18.7785 54.3C11.3785 54.3 5.57852 51.6 0.478516 47.6L5.87852 38.5C9.47852 41.2 13.6785 43.5 18.6785 43.5C22.2785 43.5 26.2785 41.7 26.2785 37.5C26.2785 33.6 20.5785 31.9 16.9785 30.8C9.67852 28.8 2.17852 24.3 2.17852 15.3C2.17852 6.8 9.87852 -3.0984e-06 19.0785 -3.0977e-06ZM44.1309 1.2L63.0309 1.2C73.9309 1.2 82.5309 10.6 82.5309 21.6C82.5309 32.6 73.9309 41.9 63.0309 41.9L54.6309 41.9L54.6309 53L44.1309 53L44.1309 1.2ZM54.6309 11.7L54.6309 31.4L63.0309 31.4C67.9309 31.4 72.0309 27.2 72.0309 21.6C72.0309 15.9 67.9309 11.7 63.0309 11.7L54.6309 11.7ZM89.541 1.3L123.741 1.3L123.741 11.8L100.041 11.8L100.041 22.3L122.841 22.3L122.841 32L100.041 32L100.041 42.5L123.741 42.5L123.741 53L89.541 53L89.541 1.3ZM150.529 1.2L161.729 1.2L180.629 53L169.429 53L165.429 41.9L146.929 41.9L142.929 53L131.729 53L150.529 1.2ZM156.129 16.6L150.829 31.4L161.529 31.4L156.129 16.6ZM186.609 1.2L197.109 1.2L197.109 29.3L219.509 1.2L232.909 1.2L212.209 27.2L232.909 53L219.409 53L205.609 35.6L197.109 46.2L197.109 53L186.609 53L186.609 1.2ZM238.955 1.3L273.155 1.3L273.155 11.8L249.455 11.8L249.455 22.3L272.255 22.3L272.255 32L249.455 32L249.455 42.5L273.155 42.5L273.155 53L238.955 53L238.955 1.3ZM281.143 1.2L300.043 1.2C310.943 1.2 319.543 10.6 319.543 21.6C319.543 29.8 314.843 37 307.843 40.2L320.943 53L306.843 53L295.543 41.9L291.643 41.9L291.643 53L281.143 53L281.143 1.2ZM291.643 11.7L291.643 31.4L300.043 31.4C304.943 31.4 309.043 27.2 309.043 21.6C309.043 15.9 304.943 11.7 300.043 11.7L291.643 11.7ZM343.493 -3.07326e-06C350.493 -3.07274e-06 354.593 2.5 358.393 4.8L352.393 13.4C349.993 11.9 347.193 10.5 343.493 10.5C340.693 10.5 337.393 12.2 337.393 15.3C337.393 18.4 342.893 20.1 345.693 21C354.293 23.3 361.493 28.6 361.493 37.4L361.493 37.5C361.493 46 354.393 54.3 343.193 54.3C335.793 54.3 329.993 51.6 324.893 47.6L330.293 38.5C333.893 41.2 338.093 43.5 343.093 43.5C346.693 43.5 350.693 41.7 350.693 37.5C350.693 33.6 344.993 31.9 341.393 30.8C334.093 28.8 326.593 24.3 326.593 15.3C326.593 6.8 334.293 -3.07396e-06 343.493 -3.07326e-06Z" fill="#F4CA76"/>
<path d="M33.9785 4.8L34.7986 5.37218L35.4092 4.49704L34.4963 3.9445L33.9785 4.8ZM27.9785 13.4L27.4485 14.248L28.2547 14.7519L28.7986 13.9722L27.9785 13.4ZM21.2785 21L20.9725 21.952L20.9962 21.9596L21.0202 21.966L21.2785 21ZM0.478516 47.6L-0.381468 47.0897L-0.829619 47.8449L-0.138624 48.3869L0.478516 47.6ZM5.87852 38.5L6.47852 37.7L5.58714 37.0315L5.01853 37.9897L5.87852 38.5ZM16.9785 30.8L17.2707 29.8436L17.2568 29.8394L17.2428 29.8355L16.9785 30.8ZM19.0785 0.999997C25.7873 0.999997 29.6859 3.37076 33.4607 5.6555L34.4963 3.9445C30.6711 1.62924 26.3697 -1 19.0785 -1L19.0785 0.999997ZM33.1584 4.22782L27.1584 12.8278L28.7986 13.9722L34.7986 5.37218L33.1584 4.22782ZM28.5085 12.552C26.0461 11.013 23.0541 9.5 19.0785 9.5L19.0785 11.5C22.5029 11.5 25.1109 12.787 27.4485 14.248L28.5085 12.552ZM19.0785 9.5C17.4969 9.5 15.7689 9.97519 14.4098 10.915C13.0329 11.8671 11.9785 13.3466 11.9785 15.3L13.9785 15.3C13.9785 14.1534 14.5741 13.2329 15.5473 12.56C16.5382 11.8748 17.8601 11.5 19.0785 11.5L19.0785 9.5ZM11.9785 15.3C11.9785 16.3962 12.4711 17.314 13.145 18.0481C13.8106 18.7733 14.6939 19.3672 15.6059 19.8563C17.4266 20.8326 19.5947 21.5092 20.9725 21.952L21.5845 20.048C20.1623 19.5908 18.1805 18.9674 16.5511 18.0937C15.7381 17.6578 15.0714 17.1892 14.6183 16.6956C14.1735 16.211 13.9785 15.7538 13.9785 15.3L11.9785 15.3ZM21.0202 21.966C29.468 24.2253 36.0785 29.2923 36.0785 37.4L38.0785 37.4C38.0785 27.9077 30.2891 22.3747 21.5369 20.0339L21.0202 21.966ZM36.0785 37.4L36.0785 37.5L38.0785 37.5L38.0785 37.4L36.0785 37.4ZM36.0785 37.5C36.0785 45.4365 29.4375 53.3 18.7785 53.3L18.7785 55.3C30.5196 55.3 38.0785 46.5635 38.0785 37.5L36.0785 37.5ZM18.7785 53.3C11.6546 53.3 6.06573 50.7112 1.09566 46.8131L-0.138624 48.3869C5.09131 52.4888 11.1024 55.3 18.7785 55.3L18.7785 53.3ZM1.3385 48.1103L6.7385 39.0103L5.01853 37.9897L-0.381468 47.0897L1.3385 48.1103ZM5.27852 39.3C8.94559 42.0503 13.3592 44.5 18.6785 44.5L18.6785 42.5C13.9978 42.5 10.0114 40.3497 6.47852 37.7L5.27852 39.3ZM18.6785 44.5C20.6241 44.5 22.7323 44.0171 24.3865 42.9048C26.078 41.7675 27.2785 39.9728 27.2785 37.5L25.2785 37.5C25.2785 39.2272 24.479 40.4325 23.2705 41.2452C22.0247 42.0829 20.3329 42.5 18.6785 42.5L18.6785 44.5ZM27.2785 37.5C27.2785 34.9828 25.4248 33.3238 23.4671 32.2275C21.4805 31.115 19.0453 30.3859 17.2707 29.8436L16.6863 31.7563C18.5118 32.3141 20.7265 32.985 22.4899 33.9725C24.2823 34.9762 25.2785 36.1172 25.2785 37.5L27.2785 37.5ZM17.2428 29.8355C13.6768 28.8586 10.1388 27.2894 7.50869 24.9305C4.90594 22.5962 3.17852 19.4819 3.17852 15.3L1.17852 15.3C1.17852 20.1181 3.20109 23.7538 6.17334 26.4195C9.11826 29.0606 12.9803 30.7414 16.7143 31.7645L17.2428 29.8355ZM3.17852 15.3C3.17852 7.45039 10.3273 0.999997 19.0785 0.999997L19.0785 -1C9.42973 -1 1.17852 6.14961 1.17852 15.3L3.17852 15.3ZM44.1309 1.2L44.1309 0.199999L43.1309 0.199999L43.1309 1.2L44.1309 1.2ZM54.6309 41.9L54.6309 40.9L53.6309 40.9L53.6309 41.9L54.6309 41.9ZM54.6309 53L54.6309 54L55.6309 54L55.6309 53L54.6309 53ZM44.1309 53L43.1309 53L43.1309 54L44.1309 54L44.1309 53ZM54.6309 11.7L54.6309 10.7L53.6309 10.7L53.6309 11.7L54.6309 11.7ZM54.6309 31.4L53.6309 31.4L53.6309 32.4L54.6309 32.4L54.6309 31.4ZM44.1309 2.2L63.0309 2.2L63.0309 0.199999L44.1309 0.199999L44.1309 2.2ZM63.0309 2.2C73.3241 2.2 81.5309 11.0961 81.5309 21.6L83.5309 21.6C83.5309 10.1039 74.5377 0.199999 63.0309 0.199999L63.0309 2.2ZM81.5309 21.6C81.5309 32.0974 73.3302 40.9 63.0309 40.9L63.0309 42.9C74.5315 42.9 83.5309 33.1026 83.5309 21.6L81.5309 21.6ZM63.0309 40.9L54.6309 40.9L54.6309 42.9L63.0309 42.9L63.0309 40.9ZM53.6309 41.9L53.6309 53L55.6309 53L55.6309 41.9L53.6309 41.9ZM54.6309 52L44.1309 52L44.1309 54L54.6309 54L54.6309 52ZM45.1309 53L45.1309 1.2L43.1309 1.2L43.1309 53L45.1309 53ZM53.6309 11.7L53.6309 31.4L55.6309 31.4L55.6309 11.7L53.6309 11.7ZM54.6309 32.4L63.0309 32.4L63.0309 30.4L54.6309 30.4L54.6309 32.4ZM63.0309 32.4C68.5447 32.4 73.0309 27.6887 73.0309 21.6L71.0309 21.6C71.0309 26.7113 67.317 30.4 63.0309 30.4L63.0309 32.4ZM73.0309 21.6C73.0309 15.4183 68.5512 10.7 63.0309 10.7L63.0309 12.7C67.3106 12.7 71.0309 16.3817 71.0309 21.6L73.0309 21.6ZM63.0309 10.7L54.6309 10.7L54.6309 12.7L63.0309 12.7L63.0309 10.7ZM89.541 1.3L89.541 0.299998L88.541 0.299998L88.541 1.3L89.541 1.3ZM123.741 1.3L124.741 1.3L124.741 0.299998L123.741 0.299998L123.741 1.3ZM123.741 11.8L123.741 12.8L124.741 12.8L124.741 11.8L123.741 11.8ZM100.041 11.8L100.041 10.8L99.041 10.8L99.041 11.8L100.041 11.8ZM100.041 22.3L99.041 22.3L99.041 23.3L100.041 23.3L100.041 22.3ZM122.841 22.3L123.841 22.3L123.841 21.3L122.841 21.3L122.841 22.3ZM122.841 32L122.841 33L123.841 33L123.841 32L122.841 32ZM100.041 32L100.041 31L99.041 31L99.041 32L100.041 32ZM100.041 42.5L99.041 42.5L99.041 43.5L100.041 43.5L100.041 42.5ZM123.741 42.5L124.741 42.5L124.741 41.5L123.741 41.5L123.741 42.5ZM123.741 53L123.741 54L124.741 54L124.741 53L123.741 53ZM89.541 53L88.541 53L88.541 54L89.541 54L89.541 53ZM89.541 2.3L123.741 2.3L123.741 0.299998L89.541 0.299998L89.541 2.3ZM122.741 1.3L122.741 11.8L124.741 11.8L124.741 1.3L122.741 1.3ZM123.741 10.8L100.041 10.8L100.041 12.8L123.741 12.8L123.741 10.8ZM99.041 11.8L99.041 22.3L101.041 22.3L101.041 11.8L99.041 11.8ZM100.041 23.3L122.841 23.3L122.841 21.3L100.041 21.3L100.041 23.3ZM121.841 22.3L121.841 32L123.841 32L123.841 22.3L121.841 22.3ZM122.841 31L100.041 31L100.041 33L122.841 33L122.841 31ZM99.041 32L99.041 42.5L101.041 42.5L101.041 32L99.041 32ZM100.041 43.5L123.741 43.5L123.741 41.5L100.041 41.5L100.041 43.5ZM122.741 42.5L122.741 53L124.741 53L124.741 42.5L122.741 42.5ZM123.741 52L89.541 52L89.541 54L123.741 54L123.741 52ZM90.541 53L90.541 1.3L88.541 1.3L88.541 53L90.541 53ZM150.529 1.2L150.529 0.199999L149.828 0.199999L149.589 0.858839L150.529 1.2ZM161.729 1.2L162.668 0.857237L162.428 0.199999L161.729 0.199999L161.729 1.2ZM180.629 53L180.629 54L182.058 54L181.568 52.6572L180.629 53ZM169.429 53L168.488 53.339L168.726 54L169.429 54L169.429 53ZM165.429 41.9L166.369 41.561L166.131 40.9L165.429 40.9L165.429 41.9ZM146.929 41.9L146.929 40.9L146.226 40.9L145.988 41.561L146.929 41.9ZM142.929 53L142.929 54L143.631 54L143.869 53.339L142.929 53ZM131.729 53L130.789 52.6588L130.302 54L131.729 54L131.729 53ZM156.129 16.6L157.068 16.2572L156.12 13.6584L155.187 16.2629L156.129 16.6ZM150.829 31.4L149.887 31.0629L149.408 32.4L150.829 32.4L150.829 31.4ZM161.529 31.4L161.529 32.4L162.958 32.4L162.468 31.0572L161.529 31.4ZM150.529 2.2L161.729 2.2L161.729 0.199999L150.529 0.199999L150.529 2.2ZM160.789 1.54276L179.689 53.3428L181.568 52.6572L162.668 0.857237L160.789 1.54276ZM180.629 52L169.429 52L169.429 54L180.629 54L180.629 52ZM170.369 52.661L166.369 41.561L164.488 42.239L168.488 53.339L170.369 52.661ZM165.429 40.9L146.929 40.9L146.929 42.9L165.429 42.9L165.429 40.9ZM145.988 41.561L141.988 52.661L143.869 53.339L147.869 42.239L145.988 41.561ZM142.929 52L131.729 52L131.729 54L142.929 54L142.929 52ZM132.669 53.3412L151.469 1.54116L149.589 0.858839L130.789 52.6588L132.669 53.3412ZM155.187 16.2629L149.887 31.0629L151.77 31.7371L157.07 16.9371L155.187 16.2629ZM150.829 32.4L161.529 32.4L161.529 30.4L150.829 30.4L150.829 32.4ZM162.468 31.0572L157.068 16.2572L155.189 16.9428L160.589 31.7428L162.468 31.0572ZM186.609 1.2L186.609 0.199999L185.609 0.199999L185.609 1.2L186.609 1.2ZM197.109 1.2L198.109 1.2L198.109 0.199999L197.109 0.199999L197.109 1.2ZM197.109 29.3L196.109 29.3L196.109 32.1587L197.891 29.9233L197.109 29.3ZM219.509 1.2L219.509 0.199999L219.027 0.199999L218.727 0.576663L219.509 1.2ZM232.909 1.2L233.691 1.82286L234.983 0.199999L232.909 0.199999L232.909 1.2ZM212.209 27.2L211.427 26.5771L210.929 27.2024L211.429 27.8258L212.209 27.2ZM232.909 53L232.909 54L234.993 54L233.689 52.3742L232.909 53ZM219.409 53L218.625 53.6214L218.926 54L219.409 54L219.409 53ZM205.609 35.6L206.392 34.9786L205.613 33.9961L204.829 34.9744L205.609 35.6ZM197.109 46.2L196.329 45.5744L196.109 45.8486L196.109 46.2L197.109 46.2ZM197.109 53L197.109 54L198.109 54L198.109 53L197.109 53ZM186.609 53L185.609 53L185.609 54L186.609 54L186.609 53ZM186.609 2.2L197.109 2.2L197.109 0.199999L186.609 0.199999L186.609 2.2ZM196.109 1.2L196.109 29.3L198.109 29.3L198.109 1.2L196.109 1.2ZM197.891 29.9233L220.291 1.82334L218.727 0.576663L196.327 28.6767L197.891 29.9233ZM219.509 2.2L232.909 2.2L232.909 0.199999L219.509 0.199999L219.509 2.2ZM232.127 0.577141L211.427 26.5771L212.991 27.8229L233.691 1.82286L232.127 0.577141ZM211.429 27.8258L232.129 53.6258L233.689 52.3742L212.989 26.5742L211.429 27.8258ZM232.909 52L219.409 52L219.409 54L232.909 54L232.909 52ZM220.192 52.3786L206.392 34.9786L204.825 36.2214L218.625 53.6214L220.192 52.3786ZM204.829 34.9744L196.329 45.5744L197.889 46.8256L206.389 36.2256L204.829 34.9744ZM196.109 46.2L196.109 53L198.109 53L198.109 46.2L196.109 46.2ZM197.109 52L186.609 52L186.609 54L197.109 54L197.109 52ZM187.609 53L187.609 1.2L185.609 1.2L185.609 53L187.609 53ZM238.955 1.3L238.955 0.299998L237.955 0.299998L237.955 1.3L238.955 1.3ZM273.155 1.3L274.155 1.3L274.155 0.299998L273.155 0.299998L273.155 1.3ZM273.155 11.8L273.155 12.8L274.155 12.8L274.155 11.8L273.155 11.8ZM249.455 11.8L249.455 10.8L248.455 10.8L248.455 11.8L249.455 11.8ZM249.455 22.3L248.455 22.3L248.455 23.3L249.455 23.3L249.455 22.3ZM272.255 22.3L273.255 22.3L273.255 21.3L272.255 21.3L272.255 22.3ZM272.255 32L272.255 33L273.255 33L273.255 32L272.255 32ZM249.455 32L249.455 31L248.455 31L248.455 32L249.455 32ZM249.455 42.5L248.455 42.5L248.455 43.5L249.455 43.5L249.455 42.5ZM273.155 42.5L274.155 42.5L274.155 41.5L273.155 41.5L273.155 42.5ZM273.155 53L273.155 54L274.155 54L274.155 53L273.155 53ZM238.955 53L237.955 53L237.955 54L238.955 54L238.955 53ZM238.955 2.3L273.155 2.3L273.155 0.299998L238.955 0.299998L238.955 2.3ZM272.155 1.3L272.155 11.8L274.155 11.8L274.155 1.3L272.155 1.3ZM273.155 10.8L249.455 10.8L249.455 12.8L273.155 12.8L273.155 10.8ZM248.455 11.8L248.455 22.3L250.455 22.3L250.455 11.8L248.455 11.8ZM249.455 23.3L272.255 23.3L272.255 21.3L249.455 21.3L249.455 23.3ZM271.255 22.3L271.255 32L273.255 32L273.255 22.3L271.255 22.3ZM272.255 31L249.455 31L249.455 33L272.255 33L272.255 31ZM248.455 32L248.455 42.5L250.455 42.5L250.455 32L248.455 32ZM249.455 43.5L273.155 43.5L273.155 41.5L249.455 41.5L249.455 43.5ZM272.155 42.5L272.155 53L274.155 53L274.155 42.5L272.155 42.5ZM273.155 52L238.955 52L238.955 54L273.155 54L273.155 52ZM239.955 53L239.955 1.3L237.955 1.3L237.955 53L239.955 53ZM281.143 1.2L281.143 0.199999L280.143 0.199999L280.143 1.2L281.143 1.2ZM307.843 40.2L307.427 39.2905L306.101 39.8966L307.144 40.9152L307.843 40.2ZM320.943 53L320.943 54L323.397 54L321.641 52.2848L320.943 53ZM306.843 53L306.142 53.7134L306.434 54L306.843 54L306.843 53ZM295.543 41.9L296.243 41.1866L295.952 40.9L295.543 40.9L295.543 41.9ZM291.643 41.9L291.643 40.9L290.643 40.9L290.643 41.9L291.643 41.9ZM291.643 53L291.643 54L292.643 54L292.643 53L291.643 53ZM281.143 53L280.143 53L280.143 54L281.143 54L281.143 53ZM291.643 11.7L291.643 10.7L290.643 10.7L290.643 11.7L291.643 11.7ZM291.643 31.4L290.643 31.4L290.643 32.4L291.643 32.4L291.643 31.4ZM281.143 2.2L300.043 2.2L300.043 0.199999L281.143 0.199999L281.143 2.2ZM300.043 2.2C310.336 2.2 318.543 11.0961 318.543 21.6L320.543 21.6C320.543 10.1039 311.549 0.199999 300.043 0.199999L300.043 2.2ZM318.543 21.6C318.543 29.4162 314.064 36.2564 307.427 39.2905L308.258 41.1095C315.621 37.7436 320.543 30.1838 320.543 21.6L318.543 21.6ZM307.144 40.9152L320.244 53.7152L321.641 52.2848L308.541 39.4848L307.144 40.9152ZM320.943 52L306.843 52L306.843 54L320.943 54L320.943 52ZM307.543 52.2866L296.243 41.1866L294.842 42.6134L306.142 53.7134L307.543 52.2866ZM295.543 40.9L291.643 40.9L291.643 42.9L295.543 42.9L295.543 40.9ZM290.643 41.9L290.643 53L292.643 53L292.643 41.9L290.643 41.9ZM291.643 52L281.143 52L281.143 54L291.643 54L291.643 52ZM282.143 53L282.143 1.2L280.143 1.2L280.143 53L282.143 53ZM290.643 11.7L290.643 31.4L292.643 31.4L292.643 11.7L290.643 11.7ZM291.643 32.4L300.043 32.4L300.043 30.4L291.643 30.4L291.643 32.4ZM300.043 32.4C305.556 32.4 310.043 27.6887 310.043 21.6L308.043 21.6C308.043 26.7113 304.329 30.4 300.043 30.4L300.043 32.4ZM310.043 21.6C310.043 15.4183 305.563 10.7 300.043 10.7L300.043 12.7C304.322 12.7 308.043 16.3817 308.043 21.6L310.043 21.6ZM300.043 10.7L291.643 10.7L291.643 12.7L300.043 12.7L300.043 10.7ZM358.393 4.8L359.213 5.37218L359.823 4.49704L358.91 3.9445L358.393 4.8ZM352.393 13.4L351.863 14.248L352.669 14.7519L353.213 13.9722L352.393 13.4ZM345.693 21L345.387 21.952L345.41 21.9596L345.434 21.966L345.693 21ZM324.893 47.6L324.033 47.0897L323.584 47.8449L324.275 48.3869L324.893 47.6ZM330.293 38.5L330.893 37.7L330.001 37.0315L329.433 37.9897L330.293 38.5ZM341.393 30.8L341.685 29.8436L341.671 29.8394L341.657 29.8355L341.393 30.8ZM343.493 0.999997C350.201 0.999997 354.1 3.37076 357.875 5.6555L358.91 3.9445C355.085 1.62924 350.784 -1 343.493 -1L343.493 0.999997ZM357.572 4.22782L351.572 12.8278L353.213 13.9722L359.213 5.37218L357.572 4.22782ZM352.923 12.552C350.46 11.013 347.468 9.5 343.493 9.5L343.493 11.5C346.917 11.5 349.525 12.787 351.863 14.248L352.923 12.552ZM343.493 9.5C341.911 9.5 340.183 9.97519 338.824 10.915C337.447 11.8671 336.393 13.3466 336.393 15.3L338.393 15.3C338.393 14.1534 338.988 13.2329 339.961 12.56C340.952 11.8748 342.274 11.5 343.493 11.5L343.493 9.5ZM336.393 15.3C336.393 16.3962 336.885 17.314 337.559 18.0481C338.225 18.7733 339.108 19.3672 340.02 19.8563C341.841 20.8326 344.009 21.5092 345.387 21.952L345.999 20.048C344.576 19.5908 342.595 18.9674 340.965 18.0937C340.152 17.6578 339.485 17.1892 339.032 16.6956C338.588 16.211 338.393 15.7538 338.393 15.3L336.393 15.3ZM345.434 21.966C353.882 24.2253 360.493 29.2923 360.493 37.4L362.493 37.4C362.493 27.9077 354.703 22.3747 345.951 20.0339L345.434 21.966ZM360.493 37.4L360.493 37.5L362.493 37.5L362.493 37.4L360.493 37.4ZM360.493 37.5C360.493 45.4365 353.852 53.3 343.193 53.3L343.193 55.3C354.934 55.3 362.493 46.5635 362.493 37.5L360.493 37.5ZM343.193 53.3C336.069 53.3 330.48 50.7112 325.51 46.8131L324.275 48.3869C329.505 52.4888 335.516 55.3 343.193 55.3L343.193 53.3ZM325.753 48.1103L331.153 39.0103L329.433 37.9897L324.033 47.0897L325.753 48.1103ZM329.693 39.3C333.36 42.0503 337.773 44.5 343.093 44.5L343.093 42.5C338.412 42.5 334.426 40.3497 330.893 37.7L329.693 39.3ZM343.093 44.5C345.038 44.5 347.146 44.0171 348.801 42.9048C350.492 41.7675 351.693 39.9728 351.693 37.5L349.693 37.5C349.693 39.2272 348.893 40.4325 347.685 41.2452C346.439 42.0829 344.747 42.5 343.093 42.5L343.093 44.5ZM351.693 37.5C351.693 34.9828 349.839 33.3238 347.881 32.2275C345.895 31.115 343.459 30.3859 341.685 29.8436L341.1 31.7563C342.926 32.3141 345.141 32.985 346.904 33.9725C348.696 34.9762 349.693 36.1172 349.693 37.5L351.693 37.5ZM341.657 29.8355C338.091 28.8586 334.553 27.2894 331.923 24.9305C329.32 22.5962 327.593 19.4819 327.593 15.3L325.593 15.3C325.593 20.1181 327.615 23.7538 330.587 26.4195C333.532 29.0606 337.394 30.7414 341.128 31.7645L341.657 29.8355ZM327.593 15.3C327.593 7.45039 334.741 0.999997 343.493 0.999997L343.493 -1C333.844 -1 325.593 6.14961 325.593 15.3L327.593 15.3Z" fill="black"/>
</svg>
