<svg width="44" height="44" viewBox="0 0 44 44" fill="none" xmlns="http://www.w3.org/2000/svg">
<path d="M13.1298 1.44949C6.28807 1.44949 0.720703 7.01686 0.720703 13.8586V31.0404C0.720703 37.8821 6.28807 43.4495 13.1298 43.4495H30.3116C37.1533 43.4495 42.7207 37.8821 42.7207 31.0404V13.8586C42.7207 7.01686 37.1533 1.44949 30.3116 1.44949H13.1298ZM13.1298 3.83086H30.3116C36.1214 3.83086 40.8116 8.04876 40.8116 13.8586V31.0404C40.8116 36.8502 36.1214 41.0157 30.3116 41.0157H13.1298C7.31997 41.0157 2.99712 36.8502 2.99712 31.0404V13.8586C2.99712 8.04876 7.31997 3.83086 13.1298 3.83086ZM33.1752 9.08586C32.6689 9.08586 32.1833 9.28699 31.8253 9.64502C31.4673 10.003 31.2662 10.4886 31.2662 10.9949C31.2662 11.5013 31.4673 11.9869 31.8253 12.3449C32.1833 12.7029 32.6689 12.904 33.1752 12.904C33.6816 12.904 34.1672 12.7029 34.5252 12.3449C34.8832 11.9869 35.0843 11.5013 35.0843 10.9949C35.0843 10.4886 34.8832 10.003 34.5252 9.64502C34.1672 9.28699 33.6816 9.08586 33.1752 9.08586ZM21.7207 11.9495C15.933 11.9495 11.2207 16.6618 11.2207 22.4495C11.2207 28.2372 15.933 32.9495 21.7207 32.9495C27.5084 32.9495 32.2207 28.2372 32.2207 22.4495C32.2207 16.6618 27.5084 11.9495 21.7207 11.9495ZM21.7207 13.8586C26.4766 13.8586 30.3116 17.6936 30.3116 22.4495C30.3116 27.2054 26.4766 31.0404 21.7207 31.0404C16.9648 31.0404 13.1298 27.2054 13.1298 22.4495C13.1298 17.6936 16.9648 13.8586 21.7207 13.8586Z" fill="white" stroke="white"/>
</svg>
