<svg width="43" height="43" viewBox="0 0 43 43" fill="none" xmlns="http://www.w3.org/2000/svg">
<path d="M37.7065 0.449493H5.70654C2.94654 0.449493 0.706543 2.68949 0.706543 5.44949V37.4495C0.706543 40.2095 2.94654 42.4495 5.70654 42.4495H37.7065C40.4665 42.4495 42.7065 40.2095 42.7065 37.4495V5.44949C42.7065 2.68949 40.4665 0.449493 37.7065 0.449493ZM13.7065 16.4495V35.4495H7.70654V16.4495H13.7065ZM7.70654 10.9195C7.70654 9.51949 8.90654 8.44949 10.7065 8.44949C12.5065 8.44949 13.6365 9.51949 13.7065 10.9195C13.7065 12.3195 12.5865 13.4495 10.7065 13.4495C8.90654 13.4495 7.70654 12.3195 7.70654 10.9195ZM35.7065 35.4495H29.7065C29.7065 35.4495 29.7065 26.1895 29.7065 25.4495C29.7065 23.4495 28.7065 21.4495 26.2065 21.4095H26.1265C23.7065 21.4095 22.7065 23.4695 22.7065 25.4495C22.7065 26.3595 22.7065 35.4495 22.7065 35.4495H16.7065V16.4495H22.7065V19.0095C22.7065 19.0095 24.6365 16.4495 28.5165 16.4495C32.4865 16.4495 35.7065 19.1795 35.7065 24.7095V35.4495Z" fill="white"/>
</svg>
